<?xml version="1.0" encoding="UTF-8" standalone="no"?>
<svg
   id="svg27"
   style="clip-rule:evenodd;fill-rule:evenodd;stroke-linejoin:round;stroke-miterlimit:1.41421"
   xml:space="preserve"
   version="1.1"
   height="199.54512"
   width="399.67761"
   xmlns="http://www.w3.org/2000/svg"
   xmlns:svg="http://www.w3.org/2000/svg"
   xmlns:rdf="http://www.w3.org/1999/02/22-rdf-syntax-ns#"
   xmlns:cc="http://creativecommons.org/ns#"
   xmlns:dc="http://purl.org/dc/elements/1.1/"><metadata
   id="metadata33"><rdf:RDF><cc:Work
       rdf:about=""><dc:format>image/svg+xml</dc:format><dc:type
         rdf:resource="http://purl.org/dc/dcmitype/StillImage" /></cc:Work></rdf:RDF></metadata><defs
   id="defs31"><rect
     x="34.710743"
     y="29.090908"
     width="331.57025"
     height="138.84299"
     id="rect296" /></defs>
    <g
   id="g25"
   style="fill:#000000"
   transform="matrix(1.1093035,0,0,1.1311785,-16.242866,-9.0490547)">
        <g
   id="g6"
   style="fill:#000000">
                <path
   d="M 14.6424,58.0073 C 25.3079,56.893 57.035,36.1963 77.3274,44.5884 76.8193,60.4478 59.5221,68.9543 67.2086,90.7401 21.8766,84.6682 29.1496,131.15 31.0066,143.967 c 2.1799,2.224 33.0587,-20.001 43.191,-19.265 -9.1903,11.309 -42.8951,38.208 -53.2769,39.804 -6.1222,-16.854 5.2534,-51.694 -3.1951,-80.0044 25.9325,12.5345 45.4842,-7.5882 39.557,-33.4641 -7.9946,-1.6198 -30.3154,12.9326 -42.6402,6.9698 z"
   style="fill:#000000"
   id="path2" />
                <path
   d="m 104.558,24.6017 c 5.887,0.5675 5.692,4.3587 13.552,3.6328 -5.446,28.1548 -15.207,26.9982 -20.129,42.6099 14.582,1.5206 31.348,-12.6099 56.339,-9.539 -2.818,10.0845 -14.603,8.422 -26.403,9.539 1.504,20.6531 -1.553,34.7976 -9.807,56.9766 3.569,23 46.096,30.19 59.055,34.084 -3.305,9.921 -28.905,10.184 -42.743,9.083 -11.584,-11.552 -13.975,-17.465 -23.807,-29.526 -14.1768,6.772 -24.1587,17.923 -52.8982,20.443 6.4932,-6.11 33.3591,-13.713 43.6102,-30.514 -3.3889,-15.669 -26.1735,-22.993 -20.5525,-29.577 15.4276,-4.7039 17.9051,17.309 23.7835,19.112 11.097,-4.513 9.426,-27.088 9.805,-42.6627 C 98.9688,73.6976 88.2514,81.2091 80.7745,87.4585 82.1047,75.7208 100.01,53.7816 104.558,24.6017 Z"
   style="fill:#000000"
   id="path4" />
            </g><path
   id="path8"
   style="fill:#000000"
   d="m 270.436,37.8211 c -8.079,3.21 -19.912,-10.8715 -19.396,-16.7204 12.564,-9.8127 24.998,5.0107 19.396,16.7204" /><path
   id="path10"
   style="fill:#000000"
   d="m 310.797,7.99967 c 7.221,0.99109 18.194,5.25603 16.473,13.37413 -9.743,0.8721 -19.388,14.8011 -29.845,12.8623 2.018,-5.4395 10.744,-10.329 13.372,-26.23643 z" /><path
   style="fill:#000000"
   d="m 319.14844,38.341797 c -26.22138,0.203635 -47.57885,8.276 -71.40235,6.603515 -2.051,14.944401 40.17158,-3.165162 32.51758,19.585938 -0.88,6.4725 -27.10358,2.053347 -32.51758,4.185547 -2.709,12.5348 23.26958,0.906672 32.51758,7.763672 -0.37,8.5495 1.828,7.383094 0,14.308593 -21.464,0.657701 -42.18397,-0.287537 -49.41797,7.226563 6.66,3.144805 14.88964,-0.407266 23.05664,3.865235 1.077,11.912 7.35518,15.43009 6.57618,22.37109 -11.599,3.759 -37.19775,0.66793 -52.46875,7.29493 22.828,6.649 144.07711,-8.2376 166.53711,-10.3086 -19.52,-13.441 -45.2048,1.46209 -60.2168,-3.1289 10.158,-14.331 5.91675,-19.605411 5.96875,-23.316411 7.484,-4.4571 20.70731,0.23525 23.82031,-7.15625 -18.56,-11.3991 -40.38205,8.159047 -53.49805,-2.564453 1.948,-7.9566 3.8731,-5.961394 3.6211,-13.621094 10.31,-0.8771 26.11237,-9.41e-4 30.10937,-9.556641 -8.344,-4.6593 -20.40517,3.794663 -29.07617,0.726563 -3.505,-7.0377 -1.4572,-9.803178 -1.0332,-14.267578 9.222,-0.4949 26.47698,2.769365 33.20898,-9.802735 -2.82478,-0.166856 -5.59018,-0.23005 -8.30273,-0.208984 z m -12.02149,56.503906 c 2.512,12.282597 -2.21801,13.577607 -3.04101,26.349607 -13.916,-0.388 -23.75133,-0.59236 -33.23633,3.05664 -1.304,-10.646 0.74231,-16.62498 -9.42969,-23.08398 4.353,-3.870701 35.18003,-6.177967 45.70703,-6.322267 z"
   id="path12" /><path
   id="path18"
   d="m 302.37695,138.29297 c -20.31452,-0.0673 -42.8989,4.44141 -57.7539,6.56641 11.985,10.463 5.06193,8.35892 12.83593,39.54492 23.618,-6.271 41.86435,1.90006 63.52735,-10.33594 -3.688,-17.637 13.5017,-15.49898 13.3457,-29.20898 -8.39512,-4.83825 -19.76636,-6.52604 -31.95508,-6.56641 z m -4.25586,6.57812 c 4.38036,0.0404 9.54433,0.80866 16.08008,2.91016 -3.152,9.176 -1.2697,10.47078 -6.3457,23.42578 -22.741,-1.446 -26.86336,6.30033 -43.81836,2.86133 3.158,-13.688 -5.132,-18.94911 0,-26.28711 14.8605,3.39525 20.94291,-3.03123 34.08398,-2.91016 z"
   style="fill:#000000" />
    </g>
<a
   id="a1879"
   style="fill:#ffffff"
   transform="translate(-0.42752257,-0.39636421)"><g
     aria-label="Ruben Garcia"
     transform="matrix(6.0467384,0,0,6.9203423,-204.20507,-155.79719)"
     id="text294"
     style="font-size:12px;font-family:'There Brat';-inkscape-font-specification:'There Brat, Normal';white-space:pre;shape-inside:url(#rect296);display:inline;fill:#ffffff"><path
       d="m 34.050938,39.604993 c 0.227999,0.204 0.395999,0.384 0.587999,0.54 0.084,0.06 0.204,0.084 0.312001,0.108 0.072,0.024 0.143999,0.012 0.216,0.012 0.024,0.024 0.048,0.048 0.06,0.072 0.216,-0.624 0.42,-1.236 0.648001,-1.848 0.228,-0.612 0.491999,-1.224 0.756,-1.884 0.851999,1.908 2.207999,3.288 4.055999,4.464 0.06,0.036 0.144,0.048 0.228,0.072 0,-0.024 0.012,-0.036 0.024,-0.06 -0.048,-0.06 -0.096,-0.12 -0.144,-0.18 0.012,-0.012 0.024,-0.024 0.036,-0.048 0.132001,0.072 0.276,0.132 0.408,0.192 0.012,-0.012 0.024,-0.036 0.036,-0.06 -0.024,-0.072 -0.06,-0.156 -0.107999,-0.3 0.203999,0.192 0.635999,0.324 0.839999,0.504 -0.107999,-0.276 -0.168,-0.492 -0.119999,-0.732 0.107999,0.096 0.204,0.192 0.311999,0.276 0.06,0.036 0.132,0.048 0.192,0.072 0.012,-0.06 0.084,-0.144 0.036,-0.192 -1.091999,-1.116 -3.24,-2.472 -3.972,-4.128 -0.072,-0.072 -0.096,-0.168 -0.156,-0.264 0.288,-0.084 0.54,-0.144 0.792001,-0.216 1.463999,-0.372 3.647999,-0.756 4.163999,-2.268 0.168001,-0.504 -0.024,-0.996 -0.372,-1.416 -1.104,-1.332 -3.672,-0.744 -5.184,-0.396 -0.372,0.084 -0.756,0.084 -1.128,0.168 -0.275999,0.072 -0.54,0.204 -0.804,0.3 -0.024,0.012 -0.036,0.036 -0.048,0.048 0.024,0.096 0.048,0.18 0.072,0.252 0.120001,0.012 0.216,0.024 0.336,0.048 -0.084,0.06 -0.132,0.12 -0.203999,0.144 -0.180001,0.096 -0.144001,0.216 -0.012,0.3 0.227999,0.144 0.239999,0.324 0.156,0.552 -0.204001,0.528 -0.408001,1.056 -0.588001,1.596 -0.084,0.216 -0.216,0.348 -0.444,0.384 -0.108,0.012 -0.204,0.06 -0.312,0.108 0.144,0.12 0.276,0.228 0.384,0.324 -0.42,1.152 -0.828,2.304 -1.259999,3.492 0.119999,-0.024 0.192,-0.036 0.204,-0.036 z m 4.836,-5.076 c 0.036,0.036 0.048,0.072 0.084,0.12 -0.108,0 -0.204,0.012 -0.287999,0.024 -0.216001,0.024 -0.432001,0.024 -0.624001,0.096 -0.192,0.06 -0.42,0.144 -0.683999,0.156 0.036,-0.12 0.084,-0.24 0.119999,-0.36 0.108001,-0.288 0.204,-0.6 0.336,-0.888 0.06,-0.12 0.168,-0.252 0.288,-0.3 0.948001,-0.408 1.932001,-0.648 2.976,-0.444 0.132,0.024 0.288,0.096 0.36,0.192 0.144,0.228 0.096,0.408 -0.156,0.516 -0.719999,0.288 -1.451999,0.552 -2.172,0.828 -0.072,0.024 -0.156,0.036 -0.239999,0.06 z m -4.428001,3.552 c 0.18,-0.444 0.348,-0.888 0.516001,-1.332 0.024,0 0.048,0.012 0.072,0.024 -0.18,0.444 -0.348,0.9 -0.528,1.344 -0.012,-0.012 -0.036,-0.024 -0.06,-0.036 z"
       id="path2005"
       style="fill:#ffffff" /><path
       d="m 45.354949,40.756993 c -0.012,0.192 -0.036,0.324 -0.036,0.456 -0.012,0.18 0.096,0.216 0.204,0.144 0.156,-0.096 0.336,-0.192 0.348,-0.456 0.012,-0.132 0.06,-0.288 0.084,-0.42 0.204,-1.332 0.696,-2.568 1.14,-3.804 0.108,-0.336 0.276,-0.672 0.408,-1.008 0.132,-0.372 0.276,-0.744 0.384,-1.104 0.084,-0.324 0.3,-0.588 0.072,-0.984 -0.24,-0.384 -0.504,-0.552 -0.864,-0.576 -0.24,-0.012 -0.48,-0.024 -0.588,0.288 -0.012,0.036 -0.084,0.036 -0.12,0.06 -0.06,0.036 -0.132,0.048 -0.168,0.108 -0.096,0.108 -0.168,0.24 -0.252,0.372 -0.072,0.108 -0.168,0.216 -0.228,0.336 -0.048,0.084 -0.06,0.192 -0.12,0.264 -0.408,0.516 -0.72,1.104 -1.092,1.632 -0.096,0.108 -0.144,0.252 -0.228,0.348 -0.168,0.192 -0.372,0.372 -0.552,0.564 -0.204,0.216 -0.384,0.432 -0.576,0.636 0,-0.204 0.036,-0.372 0.096,-0.516 0.432,-1.068 0.864,-2.1 1.284,-3.156 0.036,-0.072 0.072,-0.168 0.048,-0.216 -0.06,-0.228 -0.012,-0.396 0.108,-0.576 0.096,-0.144 0.084,-0.324 -0.084,-0.432 -0.18,-0.132 -0.336,-0.168 -0.456,0.084 -0.024,0.036 -0.024,0.108 -0.048,0.144 -0.036,0.048 -0.084,0.084 -0.132,0.096 -0.024,0 -0.06,-0.084 -0.084,-0.12 -0.024,-0.06 -0.048,-0.108 -0.072,-0.18 -0.06,0 -0.12,0.012 -0.12,0.012 -0.108,0.132 -0.168,0.204 -0.24,0.288 -0.084,0.084 -0.24,0.144 -0.276,0.252 -0.372,0.9 -0.744,1.8 -1.092,2.712 -0.144,0.372 -0.228,0.768 -0.348,1.152 -0.096,0.324 -0.18,0.624 -0.12,0.972 0.06,0.336 0.06,0.684 0.384,0.876 0.024,0.012 0.048,0.06 0.06,0.084 0.168,0.228 0.36,0.432 0.624,0.48 0.192,0.06 0.384,0.108 0.564,-0.036 0.324,-0.288 0.66,-0.6 0.984,-0.888 0.108,-0.096 0.204,-0.18 0.3,-0.264 -0.324,1.548 -0.24,2.112 0,2.388 0.084,-0.048 0.132,-0.06 0.204,-0.096 0,0.12 0,0.216 0,0.324 0.192,-0.072 0.372,-0.144 0.6,-0.24 z"
       id="path2007"
       style="fill:#ffffff" /><path
       d="m 50.862947,36.028993 c 1.26,-0.6 4.572,-3.624 0.804,-4.176 -0.084,-0.012 -0.18,-0.024 -0.264,-0.024 -1.152,-0.084 -2.508,0.096 -3.396,0.408 -0.108,0.036 0.444,0.264 0.348,0.324 l -0.432,0.36 0.336,0.048 -0.12,0.036 c 0.144,0.084 0.24,0.156 0.348,0.228 l -0.432,0.264 1.056,-0.144 c -1.188,3.804 -1.692,4.668 -2.016,5.472 -0.12,0.324 -0.3,0.372 -0.564,0.408 -0.12,0.012 -0.252,0.036 -0.384,0.06 v 0.06 c 0.384,0.012 0.528,0.288 0.66,0.576 0.036,0.072 0.108,0.12 0.156,0.168 -0.048,0.204 -0.108,0.444 -0.18,0.684 l 0.108,0.048 0.408,-0.372 c 0.072,0.072 -0.024,0.744 0.036,0.732 0.144,-0.012 0.492,-0.6 0.576,-0.696 0.192,-0.252 0.324,-0.528 0.516,-0.84 0,0 0.06,0 0.12,-0.024 0.864,-0.252 1.692,-0.588 2.448,-1.08 0.408,-0.252 0.78,-0.552 1.032,-0.96 0.096,-0.156 0.156,-0.3 0.084,-0.492 -0.216,-0.576 -0.648,-0.888 -1.248,-1.068 z m -1.764,1.584 c 0.216,-0.852 2.76,-1.332 0.828,0.108 -0.396,0.3 -0.852,0.54 -1.188,0.708 0.132,-0.288 0.3,-0.54 0.36,-0.816 z m 1.812,-4.152 c 0.192,-0.492 0.804,-0.372 0.432,0.3 -0.288,0.492 -1.044,1.32 -1.284,1.524 0.084,-0.216 0.288,-0.624 0.852,-1.824 z"
       id="path2009"
       style="fill:#ffffff" /><path
       d="m 57.834954,32.824993 c 0.012,-0.024 0,-0.06 0,-0.084 -0.108,-0.012 -0.24,-0.06 -0.348,-0.048 -0.48,0.036 -0.972,0.072 -1.452,0.144 -0.744,0.132 -1.476,0.288 -2.208,0.444 -0.144,0.036 -0.252,0.144 -0.384,0.216 0.012,0.024 0.024,0.048 0.048,0.072 0.12,0.036 0.264,0.072 0.384,0.12 0.144,0.048 0.312,0.324 0.264,0.444 -0.156,0.408 -0.324,0.828 -0.48,1.236 -0.216,0.528 -0.432,1.068 -0.636,1.596 -0.216,0.552 -0.408,1.116 -0.6,1.656 0.072,0.084 0.132,0.144 0.18,0.204 0.204,0.24 0.372,0.504 0.66,0.636 0.192,0.084 0.396,0.252 0.576,0.096 0.384,-0.324 0.828,-0.516 1.332,-0.624 0.516,-0.096 1.068,-0.144 1.608,-0.24 0.108,-0.012 0.252,-0.096 0.276,-0.192 0.024,-0.084 -0.096,-0.252 -0.18,-0.336 -0.12,-0.12 -0.288,-0.192 -0.408,-0.276 0.084,-0.072 0.18,-0.144 0.276,-0.204 -0.012,-0.036 -0.024,-0.06 -0.036,-0.084 -0.864,-0.192 -1.56,0.3 -2.388,0.336 0.084,-0.228 0.168,-0.432 0.228,-0.648 0.084,-0.288 0.192,-0.552 0.612,-0.408 0.012,0.012 0.024,0 0.048,0 0.648,-0.168 1.296,-0.324 1.956,-0.492 0.084,-0.024 0.168,-0.144 0.156,-0.216 -0.024,-0.18 -0.096,-0.348 -0.156,-0.552 0.072,-0.012 0.132,-0.012 0.192,-0.024 0.048,-0.012 0.108,-0.036 0.156,-0.06 -0.048,-0.06 -0.084,-0.144 -0.156,-0.18 -0.252,-0.12 -0.504,-0.12 -0.768,-0.06 -0.444,0.12 -0.9,0.192 -1.404,0.3 0.096,-0.288 0.18,-0.492 0.264,-0.72 0.12,-0.348 0.24,-0.672 0.708,-0.732 0.504,-0.06 0.984,-0.192 1.476,-0.3 0.216,-0.048 0.432,-0.096 0.636,-0.144 0,-0.024 0.012,-0.048 0,-0.072 -0.288,-0.168 -0.144,-0.588 -0.564,-0.696 0.072,-0.048 0.096,-0.084 0.132,-0.108 z"
       id="path2011"
       style="fill:#ffffff" /><path
       d="m 63.354948,33.196993 c -0.012,0.084 -0.012,0.18 -0.024,0.276 -0.156,0.384 -0.312,0.768 -0.468,1.152 -0.132,0.312 -0.288,0.624 -0.444,0.924 -0.024,0.072 -0.12,0.096 -0.18,0.144 -0.048,0.096 -0.084,0.192 -0.12,0.288 -0.012,0.12 -0.036,0.216 -0.072,0.312 -0.12,0.312 -0.252,0.612 -0.372,0.9 -0.048,0.084 -0.12,0.144 -0.192,0.216 -0.048,0.096 -0.108,0.192 -0.216,0.348 -0.012,-0.312 -0.024,-0.528 -0.024,-0.756 0.036,-1.152 0.096,-2.292 0.108,-3.444 0,-0.228 0.108,-0.48 -0.18,-0.708 -0.456,-0.372 -0.888,-0.24 -1.332,-0.204 -0.048,0.024 -0.108,0.072 -0.132,0.132 -0.084,0.24 -0.144,0.492 -0.24,0.732 -0.264,0.636 -0.516,1.272 -0.792,1.896 -0.156,0.348 -0.372,0.672 -0.528,1.008 -0.396,0.888 -0.792,1.752 -1.152,2.652 -0.096,0.216 -0.3,0.432 -0.12,0.768 0.168,-0.132 0.336,-0.252 0.504,-0.384 -0.036,0.228 -0.072,0.432 -0.096,0.648 0.024,0.012 0.048,0.024 0.084,0.048 0.072,-0.06 0.12,-0.132 0.204,-0.216 0,0.18 0.012,0.36 0.012,0.576 0.3,-0.108 0.552,-0.192 0.672,-0.48 0.264,-0.66 0.528,-1.32 0.804,-1.98 0.18,-0.396 0.348,-0.804 0.528,-1.2 0.036,0.132 0.036,0.24 0.048,0.336 0.024,0.636 0.048,1.26 0.324,1.86 0.108,0.3 0.252,0.96 0.552,1.116 0.18,0.084 0.348,-0.156 0.492,0.012 0.072,0.096 0.144,0.156 0.24,0.192 0.336,0.144 0.624,0.036 0.912,-0.012 0.144,-0.42 0.276,-0.852 0.42,-1.284 0.12,-0.324 0.228,-0.648 0.36,-0.972 0.3,-0.66 0.6,-1.32 0.912,-1.992 0.192,-0.42 0.396,-0.864 0.588,-1.296 0.336,-0.792 0.672,-1.596 1.008,-2.412 0.036,-0.108 -0.036,-0.336 -0.12,-0.444 -0.252,-0.348 -0.612,-0.384 -0.948,-0.384 -0.24,0 -0.468,-0.012 -0.54,0.336 -0.024,0.216 -0.144,0.396 -0.216,0.6 -0.084,0.24 -0.18,0.456 -0.264,0.696 z m -3.624,4.8 c -0.012,-0.492 -0.024,-0.984 -0.036,-1.476 0.024,0 0.048,0 0.072,0.012 0.012,0.492 0.036,0.984 0.048,1.476 -0.036,-0.012 -0.06,-0.012 -0.084,-0.012 z m 3.6,-4.524 c 0.012,-0.096 0.012,-0.192 0.024,-0.276 -0.072,0.132 -0.168,0.252 -0.204,0.396 -0.108,0.252 -0.192,0.516 -0.276,0.78 0.156,-0.3 0.3,-0.6 0.456,-0.9 z"
       id="path2013"
       style="fill:#ffffff" /><path
       d="m 72.366948,33.940993 c 0.192,0.108 0.54,-0.036 0.732,0.048 0.12,0.048 0.132,0.24 0.24,0.252 0.216,0.024 0.504,-0.18 0.672,-0.432 0.144,-0.204 0.228,-0.432 0.312,-0.66 0.024,-0.072 -0.024,-0.18 -0.024,-0.264 0.012,-0.72 -0.324,-1.092 -0.804,-1.26 -1.536,-0.528 -2.424,0.276 -3.012,0.816 -0.564,0.48 -1.908,2.16 -2.328,2.772 -0.084,0.12 -0.396,0.756 -0.108,0.504 0.108,-0.096 0.3,-0.444 0.456,-0.66 0.276,-0.384 0.528,-0.672 0.456,-0.528 -0.252,0.552 -0.744,1.212 -0.936,1.548 -0.3,0.504 -0.48,1.056 -0.456,1.644 0.048,0.72 0.288,1.356 0.876,1.848 0.408,0.324 0.816,0.612 1.332,0.66 0.42,0.048 1.176,0 1.524,-0.456 0.024,0.108 -0.348,1.056 -0.312,1.068 0.108,0.024 0.228,0.036 0.336,0.036 -0.024,0.072 -0.048,0.168 -0.06,0.264 0.024,0.012 0.048,0.036 0.072,0.048 0.156,-0.108 0.36,-0.192 0.48,-0.336 0.204,-0.228 0.372,-0.48 0.516,-0.744 0.42,-0.756 0.792,-1.524 1.2,-2.28 0.18,-0.324 0.264,-0.792 0.816,-0.72 0.06,0.012 0.18,-0.144 0.192,-0.228 0.024,-0.096 -0.024,-0.24 -0.096,-0.312 -0.456,-0.444 -0.024,-0.66 -0.6,-0.576 -1.176,0.168 -3.384,0.564 -4.596,0.78 0.12,-0.252 0.204,-0.444 0.3,-0.636 0.564,-1.092 1.344,-2.004 2.244,-2.832 0.324,-0.288 0.648,-0.552 1.104,-0.648 0.084,0.42 -0.432,0.936 -0.528,1.284 z m -0.816,3.648 c -0.252,0.288 -0.516,0.588 -0.78,0.876 -0.192,0.216 -0.396,0.444 -0.612,0.66 -0.324,0.336 -0.756,0.456 -1.02,-0.132 -0.24,-0.552 -0.276,-1.128 -0.084,-1.704 0.048,-0.156 0.108,-0.312 0.192,-0.528 0.252,0.204 -0.06,0.384 0.168,0.54 0.18,0.132 0.036,0.456 0.408,0.492 0.192,0.024 0.936,-0.204 1.056,-0.204 0.216,-0.012 0.432,-0.036 0.648,-0.048 0.012,0.012 0.024,0.036 0.024,0.048 z"
       id="path2015"
       style="fill:#ffffff" /><path
       d="m 77.754941,33.088993 c -0.612,-0.084 -0.744,0.324 -1.092,0.792 -0.468,0.684 -0.936,1.38 -1.44,2.04 -0.336,0.456 -0.72,0.828 -1.044,1.248 -0.192,0.24 -1.008,1.368 -1.14,1.692 -0.108,0.276 0.66,-0.576 0.588,-0.312 -0.06,0.192 -0.48,0.432 -0.54,0.648 0.204,0.144 0.324,0.552 0.528,0.564 0.276,0.012 0.648,-0.396 0.924,-0.6 0.396,-0.276 0.804,-0.504 1.26,-0.78 l -0.048,0.348 c -0.048,0.468 -0.216,1.596 -0.144,2.04 0.024,0.192 0.228,-0.3 0.288,-0.12 0.06,0.18 0.144,0.252 0.324,0.252 0.252,-0.012 0.444,0.12 0.588,-0.12 0.084,-0.144 0.168,-0.588 0.192,-0.768 0.108,-0.612 0.252,-1.236 0.42,-1.824 0.096,-0.372 0.324,-0.612 0.732,-0.552 0.156,0.012 0.348,-0.012 0.516,-0.072 0.108,-0.036 0.204,-0.12 0.312,-0.18 -0.096,-0.096 -0.18,-0.216 -0.288,-0.24 -0.24,-0.072 -0.504,-0.12 -0.792,-0.168 0.336,-0.72 0.66,-1.44 1.008,-2.136 0.324,-0.648 0.66,-1.308 1.02,-1.932 0.132,-0.216 0.012,-0.18 -0.132,-0.372 -0.048,-0.072 -0.48,0.396 -0.624,0.384 -0.072,-0.012 0.048,-0.348 -0.024,-0.36 -0.06,0 -0.312,0.324 -0.372,0.324 -0.084,-0.012 0.12,-0.468 0.048,-0.444 -0.852,0.228 -0.3,0.756 -1.068,0.648 z m -0.612,2.124 c 0.012,0.168 -0.804,1.812 -1.032,2.004 -0.084,0.072 -0.192,0.108 -0.36,0.12 0.252,-0.36 1.128,-1.776 1.392,-2.124 z"
       id="path2017"
       style="fill:#ffffff" /><path
       d="m 80.862937,37.600993 c 0.288,0.288 0.54,0.564 0.816,0.828 0.624,0.636 1.212,1.32 1.98,1.788 0.216,0.132 0.564,0.36 0.768,0.324 0.204,-0.024 -0.336,-0.396 -0.3,-0.576 0.072,0.024 0.78,0.132 0.852,0.156 0.024,-0.108 0.336,0 0.264,-0.192 -0.072,-0.228 -0.504,-0.744 -0.6,-0.864 -0.432,-0.456 -0.876,-0.9 -1.308,-1.368 -0.204,-0.216 -0.384,-0.468 -0.588,-0.696 0.276,-0.096 0.552,-0.156 0.768,-0.288 0.6,-0.3 1.152,-0.66 1.56,-1.188 0.192,-0.216 0.396,-0.456 0.444,-0.72 0.156,-0.78 -0.42,-1.476 -1.104,-1.8 -0.684,-0.324 -1.32,-0.396 -1.956,-0.096 -0.156,0.072 -0.276,0.132 -0.408,-0.084 -0.036,-0.084 -0.168,-0.132 -0.264,-0.156 -0.204,-0.06 -0.432,-0.096 -0.672,-0.144 -0.024,0.108 -0.048,0.216 -0.084,0.324 -0.144,-0.108 -0.216,-0.144 -0.276,0.06 -0.168,0.396 -0.384,0.768 -0.552,1.176 -0.096,0.156 -0.144,0.348 -0.204,0.516 -0.192,0.432 -0.48,0.792 -0.588,1.284 -0.132,0.672 -0.432,1.308 -0.612,1.968 -0.12,0.36 -0.192,0.744 -0.264,1.116 -0.036,0.252 -0.036,0.528 0.192,0.756 0.072,0.072 0.168,0.132 0.204,0.216 0.108,0.156 0.264,0.24 0.432,0.18 0.072,-0.036 0.12,-0.168 0.132,-0.276 0.06,-0.528 0.228,-1.008 0.48,-1.44 -0.156,0.588 -0.3,1.176 -0.444,1.776 0.048,0.024 0.072,0.048 0.096,0.06 0.36,0.18 0.516,0.084 0.456,-0.276 0,-0.072 -0.012,-0.156 0.012,-0.216 0.252,-0.72 0.516,-1.428 0.768,-2.148 z m 2.544,-3.504 c 0.372,-0.12 0.732,-0.132 0.552,0.312 -0.324,0.672 -0.9,1.068 -1.596,1.32 -0.444,0.168 -0.912,0.3 -1.368,0.456 0.204,-0.372 0.408,-0.744 0.636,-1.068 0.144,-0.192 0.36,-0.372 0.6,-0.48 0.384,-0.204 0.768,-0.384 1.176,-0.54 z"
       id="path2019"
       style="fill:#ffffff" /><path
       d="m 85.098946,37.264993 c -0.072,0.396 -0.156,0.792 -0.24,1.188 -0.012,0 -0.036,0 -0.048,0 0.036,-0.3 0.084,-0.6 0.108,-0.888 -0.036,0.132 -0.108,0.24 -0.12,0.372 -0.132,0.612 -0.06,1.176 0.456,1.632 0.252,0.24 0.564,0.468 0.864,0.684 0.18,0.108 0.384,0.24 0.588,0.3 0.828,0.252 1.62,0.096 2.352,-0.288 1.08,-0.6 2.088,-1.248 2.772,-2.148 -0.012,-0.156 -0.06,-0.24 -0.048,-0.324 0.06,-0.396 -0.144,-0.672 -0.564,-0.756 -0.132,0.12 -0.24,0.228 -0.372,0.324 -0.36,0.252 -0.708,0.516 -1.068,0.756 -0.816,0.552 -1.632,1.092 -2.568,1.452 -0.42,0.168 -0.552,0.096 -0.66,-0.324 -0.024,-0.084 -0.024,-0.18 -0.024,-0.264 0,-0.696 0.312,-1.32 0.6,-1.944 0.504,-1.104 1.2,-2.124 2.028,-3.036 0.3,-0.336 0.636,-0.612 0.96,-0.912 0.024,0.012 0.048,0.036 0.084,0.06 -0.036,0.096 -0.096,0.204 -0.096,0.288 0,0.18 0,0.396 0.108,0.516 0.108,0.132 0.336,0.192 0.504,0.3 0.444,0.252 0.9,0.144 1.068,-0.324 0.06,-0.168 0.06,-0.336 0.132,-0.492 0.324,-0.804 -0.612,-1.548 -1.392,-1.608 -0.384,-0.036 -0.792,-0.024 -1.212,-0.024 -0.36,-0.012 -0.66,0.144 -0.876,0.408 -0.06,0.084 -0.108,0.168 -0.168,0.228 -0.924,0.84 -1.596,1.86 -2.292,2.856 -0.288,0.444 -0.408,0.984 -0.624,1.476 -0.072,0.168 -0.168,0.336 -0.252,0.492 z"
       id="path2021"
       style="fill:#ffffff" /><path
       d="m 92.238936,40.480993 c 0.768,-1.944 1.788,-4.764 2.592,-6.804 -0.18,0 -0.324,-0.024 -0.408,0.024 -0.096,0.072 -0.144,0.204 -0.216,0.348 -0.06,-0.348 -0.204,-0.432 -0.492,-0.348 -0.024,0 -0.072,0.036 -0.084,0.024 -0.132,-0.084 -0.216,-0.06 -0.288,0.048 -0.06,0.096 -0.204,0.132 -0.252,0.228 -0.192,0.48 -0.384,0.972 -0.564,1.452 -0.132,0.312 -0.444,1.452 -0.552,1.752 -0.372,0.78 -0.66,1.584 -0.744,2.46 -0.048,0.516 0.06,0.672 0.492,0.816 0.084,0.036 0.168,0.048 0.264,0.048 0.06,0 0.144,-0.036 0.252,-0.048 z m -0.636,-2.1 c -0.012,0.096 -0.012,0.192 -0.036,0.288 -0.036,0.192 -0.096,0.384 -0.144,0.576 -0.024,-0.012 -0.048,-0.024 -0.072,-0.024 0.084,-0.276 0.156,-0.552 0.252,-0.828 0.144,-0.408 0.288,-0.816 0.408,-1.212 0.024,0 0.036,0.012 0.072,0.024 -0.048,0.168 -0.132,0.36 -0.192,0.54 -0.084,0.18 -0.132,0.372 -0.216,0.564 0,0.036 -0.06,0.048 -0.072,0.072 z"
       id="path2023"
       style="fill:#ffffff" /><path
       d="m 97.710942,33.088993 c -0.612,-0.084 -0.744,0.324 -1.092,0.792 -0.468,0.684 -0.936,1.38 -1.44,2.04 -0.336,0.456 -0.72,0.828 -1.044,1.248 -0.192,0.24 -1.008,1.368 -1.14,1.692 -0.108,0.276 0.66,-0.576 0.588,-0.312 -0.06,0.192 -0.48,0.432 -0.54,0.648 0.204,0.144 0.324,0.552 0.528,0.564 0.276,0.012 0.648,-0.396 0.924,-0.6 0.396,-0.276 0.804,-0.504 1.26,-0.78 l -0.048,0.348 c -0.048,0.468 -0.216,1.596 -0.144,2.04 0.024,0.192 0.228,-0.3 0.288,-0.12 0.06,0.18 0.144,0.252 0.324,0.252 0.252,-0.012 0.444,0.12 0.588,-0.12 0.084,-0.144 0.168,-0.588 0.192,-0.768 0.108,-0.612 0.252,-1.236 0.42,-1.824 0.096,-0.372 0.324,-0.612 0.732,-0.552 0.156,0.012 0.348,-0.012 0.516,-0.072 0.108,-0.036 0.204,-0.12 0.312,-0.18 -0.096,-0.096 -0.18,-0.216 -0.288,-0.24 -0.24,-0.072 -0.504,-0.12 -0.792,-0.168 0.336,-0.72 0.66,-1.44 1.008,-2.136 0.324,-0.648 0.66,-1.308 1.02,-1.932 0.131998,-0.216 0.012,-0.18 -0.132,-0.372 -0.048,-0.072 -0.48,0.396 -0.624,0.384 -0.072,-0.012 0.048,-0.348 -0.024,-0.36 -0.06,0 -0.312,0.324 -0.372,0.324 -0.084,-0.012 0.12,-0.468 0.048,-0.444 -0.852,0.228 -0.3,0.756 -1.068,0.648 z m -0.612,2.124 c 0.012,0.168 -0.804,1.812 -1.032,2.004 -0.084,0.072 -0.192,0.108 -0.36,0.12 0.252,-0.36 1.128,-1.776 1.392,-2.124 z"
       id="path2025"
       style="fill:#ffffff" /></g></a></svg>
