<svg xmlns="http://www.w3.org/2000/svg" version="1.1" xmlns:xlink="http://www.w3.org/1999/xlink" xmlns:svgjs="http://svgjs.com/svgjs" width="1920" height="1080" preserveAspectRatio="none" viewBox="0 0 1920 1080"><g mask="url(&quot;#SvgjsMask1036&quot;)" fill="none"><rect width="1920" height="1080" x="0" y="0" fill="#0e2a47"></rect><path d="M1348.3702055021474 216.94995340128904L1137.4412167077821 381.7457405599231 1302.2370038664162 592.6747293542883 1513.1659926607815 427.8789421956543z" fill="rgba(28, 83, 142, 0.4)" class="triangle-float1"></path><path d="M10.24053225802841 731.4188382502942L208.99357015309351 937.2336339485998 414.80836585139906 738.4805960535347 216.055327956334 532.6658003552291z" fill="rgba(28, 83, 142, 0.4)" class="triangle-float1"></path><path d="M1040.5784354296288 442.46905389566706L1251.390623625247 283.6106756698265 1092.5322453994065 72.79848747420834 881.7200572037883 231.65686570004885z" fill="rgba(28, 83, 142, 0.4)" class="triangle-float2"></path><path d="M684.374373286975 843.6004348236337L445.77551191835505 925.7566112923223 527.9316883870437 1164.3554726609423 766.5305497556637 1082.1992961922538z" fill="rgba(28, 83, 142, 0.4)" class="triangle-float3"></path><path d="M939.8689532995054 436.0437557870529L886.1942818150011 740.447944351075 1190.5984703790232 794.1226158355792 1244.2731418635276 489.7184272715571z" fill="rgba(28, 83, 142, 0.4)" class="triangle-float2"></path><path d="M1539.1000242973644 138.08276353123264L1750.9579462234806 255.51752727685277 1868.392709969101 43.65960535073647 1656.5347880429845-73.77515839488368z" fill="rgba(28, 83, 142, 0.4)" class="triangle-float1"></path><path d="M884.8390039546936 487.6745623821285L744.2382318658892 609.8969488856479 866.4606183694087 750.4977209744522 1007.061390458213 628.2753344709329z" fill="rgba(28, 83, 142, 0.4)" class="triangle-float3"></path><path d="M1680.1035660249818 964.0458566621945L1532.9083945851478 761.4490839117522 1330.3116218347054 908.6442553515863 1477.5067932745394 1111.2410281020286z" fill="rgba(28, 83, 142, 0.4)" class="triangle-float1"></path><path d="M1209.9827979413308 60.367077652832236L1358.4181328565637 176.33747128781442 1474.3885264915457 27.90213637258158 1325.953191576313-88.06825726240062z" fill="rgba(28, 83, 142, 0.4)" class="triangle-float3"></path><path d="M980.3036452989949 577.0205367073847L1161.7895702118487 336.1805798547914 920.9496133592553 154.69465494193759 739.4636884464015 395.534611794531z" fill="rgba(28, 83, 142, 0.4)" class="triangle-float2"></path></g><defs><mask id="SvgjsMask1036"><rect width="1920" height="1080" fill="#ffffff"></rect></mask><style>
            <!-- @keyframes float1 {
                0%{transform: translate(0, 0)}
                50%{transform: translate(-10px, 0)}
                100%{transform: translate(0, 0)}
            }

            .triangle-float1 {
                animation: float1 5s infinite;
            }

            @keyframes float2 {
                0%{transform: translate(0, 0)}
                50%{transform: translate(-5px, -5px)}
                100%{transform: translate(0, 0)}
            }

            .triangle-float2 {
                animation: float2 4s infinite;
            }

            @keyframes float3 {
                0%{transform: translate(0, 0)}
                50%{transform: translate(0, -10px)}
                100%{transform: translate(0, 0)}
            }

            .triangle-float3 {
                animation: float3 6s infinite;
            } -->
        </style></defs></svg>